<svg xmlns="http://www.w3.org/2000/svg" viewBox="0 0 24 24" width="39" height="39">
  <defs>
    <linearGradient id="gradFriends" x1="0%" y1="0%" x2="100%" y2="100%">
      <stop offset="0%" style="stop-color:#fa709a;stop-opacity:1" />
      <stop offset="100%" style="stop-color:#fee140;stop-opacity:1" />
    </linearGradient>
  </defs>
  <path fill="url(#gradFriends)" opacity="0.5" transform="translate(2,-2) rotate(-8 12 12)" d="M3.9 12c0-1.71 1.39-3.1 3.1-3.1h4V7H7c-2.76 0-5 2.24-5 5s2.24 5 5 5h4v-1.9H7c-1.71 0-3.1-1.39-3.1-3.1zM8 13h8v-2H8v2zm9-6h-4v1.9h4c1.71 0 3.1 1.39 3.1 3.1s-1.39 3.1-3.1 3.1h-4V17h4c2.76 0 5-2.24 5-5s-2.24-5-5-5z"/>
  <path fill="url(#gradFriends)" stroke="#ffffff" stroke-width="0.6" stroke-linejoin="round" transform="translate(-1,1) rotate(8 12 12)" d="M3.9 12c0-1.71 1.39-3.1 3.1-3.1h4V7H7c-2.76 0-5 2.24-5 5s2.24 5 5 5h4v-1.9H7c-1.71 0-3.1-1.39-3.1-3.1zM8 13h8v-2H8v2zm9-6h-4v1.9h4c1.71 0 3.1 1.39 3.1 3.1s-1.39 3.1-3.1 3.1h-4V17h4c2.76 0 5-2.24 5-5s-2.24-5-5-5z"/>
</svg>
