<svg xmlns="http://www.w3.org/2000/svg" viewBox="0 0 24 24" width="39" height="39">
  <defs>
    <linearGradient id="gradMessage" x1="0%" y1="0%" x2="100%" y2="100%">
      <stop offset="0%" style="stop-color:#43e97b;stop-opacity:1" />
      <stop offset="100%" style="stop-color:#38f9d7;stop-opacity:1" />
    </linearGradient>
  </defs>
  <!-- Background Bubble (Filled) -->
  <path fill="url(#gradMessage)" opacity="0.5" d="M20 2H8C6.9 2 6 2.9 6 4v2h2V4h12v12h-2v2h2c1.1 0 2-.9 2-2V4c0-1.1-.9-2-2-2z"/>
  <!-- Foreground Bubble (Filled) -->
  <path fill="url(#gradMessage)" d="M16 8H4c-1.1 0-2 .9-2 2v12l4-4h10c1.1 0 2-.9 2-2V10c0-1.1-.9-2-2-2zm0 8H6l-2 2V10h12v6z"/>
  <!-- Internal Lines for Text Look -->
  <path fill="url(#gradMessage)" d="M7 11h6v1.5H7zm0 2.5h4v1.5H7z" opacity="0.8"/>
</svg>